name analog
datacolumns 19
datarows 47
range 0.0 0.023
endheader
time	ground_force_vx	ground_force_vy	ground_force_vz	ground_force_px	ground_force_py	ground_force_pz	l_ground_force_vx	l_ground_force_vy	l_ground_force_vz	l_ground_force_px	l_ground_force_py	l_ground_force_pz	ground_torque_x	ground_torque_y	ground_torque_z	l_ground_torque_x	l_ground_torque_y	l_ground_torque_z
0.0	-0.0	-0.0	-0.0	14.930320739746094	52.90138244628906	-309.5917663574219	13.035781860351562	-55.01504898071289	-274.3776550292969	-0.0	-0.0	-0.0	-0.0	-0.0	-0.0	55356.03125	-36497.8828125	8896.0830078125
0.0005	-0.0	-0.0	-0.0	14.98736572265625	53.07966613769531	-309.3856201171875	12.872564315795898	-56.3957633972168	-277.2451171875	-0.0	-0.0	-0.0	-0.0	-0.0	-0.0	55531.65625	-36855.2109375	9075.203125
0.001	-0.0	-0.0	-0.0	15.034565925598145	52.54496765136719	-308.3466186523437	12.956690788269045	-57.23735046386719	-278.3613586425781	-0.0	-0.0	-0.0	-0.0	-0.0	-0.0	55982.28515625	-37086.1875	9190.529296875
0.0015	-0.0	-0.0	-0.0	15.417593955993652	52.81240081787109	-309.4273986816406	13.082340240478516	-57.89735794067383	-281.2318115234375	-0.0	-0.0	-0.0	-0.0	-0.0	-0.0	56569.00390625	-37099.45703125	9165.802734375
0.002	-0.0	-0.0	-0.0	15.155137062072754	52.85433197021485	-308.4710693359375	13.03038501739502	-58.29231262207031	-282.8525695800781	-0.0	-0.0	-0.0	-0.0	-0.0	-0.0	56634.30859375	-37478.33203125	9204.3017578125
0.0025	-0.0	-0.0	-0.0	14.89266300201416	53.0380744934082	-308.7445068359375	13.264870643615724	-58.53131103515625	-286.3659362792969	-0.0	-0.0	-0.0	-0.0	-0.0	-0.0	57127.68359375	-37423.1875	9110.1552734375
0.003	-0.0	-0.0	-0.0	14.452102661132812	52.93792724609375	-307.972900390625	13.233701705932615	-58.281829833984375	-288.2557678222656	-0.0	-0.0	-0.0	-0.0	-0.0	-0.0	57779.16015625	-37646.859375	9071.8037109375
0.0035	-0.0	-0.0	-0.0	14.404664039611816	52.695159912109375	-308.07098388671875	13.40610694885254	-58.70317840576172	-291.84832763671875	-0.0	-0.0	-0.0	-0.0	-0.0	-0.0	58340.84765625	-37714.83203125	9117.2177734375
0.004	-0.0	-0.0	-0.0	13.946980476379396	52.82999801635742	-307.45458984375	12.86306381225586	-58.64011764526367	-294.3564758300781	-0.0	-0.0	-0.0	-0.0	-0.0	-0.0	58677.296875	-38065.7890625	9069.6083984375
0.0045000000000000005	-0.0	-0.0	-0.0	12.988880157470703	52.83684158325195	-307.4316101074219	12.070223808288574	-59.040283203125	-298.38287353515625	-0.0	-0.0	-0.0	-0.0	-0.0	-0.0	59463.5703125	-38275.765625	8892.80078125
0.005	-0.0	-0.0	-0.0	13.239163398742676	52.59893035888672	-307.9253845214844	11.360703468322754	-59.71685791015625	-299.6903686523437	-0.0	-0.0	-0.0	-0.0	-0.0	-0.0	59735.2265625	-38410.875	8753.3720703125
0.0055	-0.0	-0.0	-0.0	13.280205726623535	52.41475296020508	-308.7475280761719	11.336731910705566	-59.65263748168945	-302.7372741699219	-0.0	-0.0	-0.0	-0.0	-0.0	-0.0	59993.6796875	-38593.47265625	8747.68359375
0.006	-0.0	-0.0	-0.0	13.476916313171388	51.950782775878906	-309.5258178710937	11.124428749084473	-59.80543518066406	-304.64630126953125	-0.0	-0.0	-0.0	-0.0	-0.0	-0.0	60985.0546875	-38829.76171875	8816.794921875
0.006500000000000001	-0.0	-0.0	-0.0	13.916839599609377	52.53923034667969	-308.51513671875	10.87609577178955	-60.441219329833984	-309.8128662109375	-0.0	-0.0	-0.0	-0.0	-0.0	-0.0	61530.0234375	-38721.7265625	8642.46875
0.007	-0.0	-0.0	-0.0	14.047481536865234	52.21773147583008	-311.4293518066406	10.113029479980469	-60.77740097045898	-310.7210998535156	-0.0	-0.0	-0.0	-0.0	-0.0	-0.0	61804.33203125	-38546.828125	8432.189453125
0.0075	-0.0	-0.0	-0.0	14.439156532287598	52.40867614746094	-312.72802734375	9.941800117492676	-61.8354377746582	-310.76934814453125	-0.0	-0.0	-0.0	-0.0	-0.0	-0.0	61603.31640625	-38172.19921875	8235.8984375
0.008	-0.0	-0.0	-0.0	14.630523681640623	53.0194206237793	-316.88067626953125	9.178410530090332	-61.59495162963867	-309.48565673828125	-0.0	-0.0	-0.0	-0.0	-0.0	-0.0	61730.53515625	-37928.01171875	8045.72509765625
0.0085	-0.0	-0.0	-0.0	13.910199165344238	53.491512298583984	-317.9728088378906	9.308273315429688	-61.2479248046875	-311.25616455078125	-0.0	-0.0	-0.0	-0.0	-0.0	-0.0	61698.48046875	-37465.36328125	8061.80859375
0.009000000000000001	-0.0	-0.0	-0.0	13.059127807617188	54.08174896240234	-321.6391296386719	9.79927921295166	-61.064701080322266	-313.3507385253906	-0.0	-0.0	-0.0	-0.0	-0.0	-0.0	61796.0234375	-37691.37890625	7877.7294921875
0.0095	-0.0	-0.0	-0.0	11.76889991760254	54.41755294799805	-324.4366760253906	9.887950897216797	-60.717872619628906	-315.633056640625	-0.0	-0.0	-0.0	-0.0	-0.0	-0.0	62337.18359375	-37646.0625	7861.8916015625
0.01	-0.0	-0.0	-0.0	10.602705955505373	54.87017440795898	-325.7122497558594	9.881258010864258	-60.82606506347656	-318.2123718261719	-0.0	-0.0	-0.0	-0.0	-0.0	-0.0	62959.76953125	-37278.54296875	7672.3359375
0.0105	-0.0	-0.0	-0.0	9.559752464294434	54.15027618408203	-328.75421142578125	9.485224723815918	-60.677001953125	-320.03778076171875	-0.0	-0.0	-0.0	-0.0	-0.0	-0.0	63465.4296875	-36968.9921875	7685.72705078125
0.011	-0.0	-0.0	-0.0	9.14047908782959	53.75282287597656	-327.8079528808594	9.314632415771484	-60.7722053527832	-323.3143920898437	-0.0	-0.0	-0.0	-0.0	-0.0	-0.0	63726.8671875	-36722.5703125	7482.32373046875
0.0115	-0.0	-0.0	-0.0	9.017569541931152	53.58197784423828	-330.6228332519531	8.761300086975098	-60.57469177246094	-322.9375915527344	-0.0	-0.0	-0.0	-0.0	-0.0	-0.0	63831.953125	-36525.2109375	7242.52880859375
0.012	-0.0	-0.0	-0.0	7.032810211181641	53.58958053588867	-331.15020751953125	8.60494613647461	-60.30952835083008	-324.87158203125	-0.0	-0.0	-0.0	-0.0	-0.0	-0.0	64590.8125	-36385.703125	7176.64599609375
0.0125	-0.0	-0.0	-0.0	5.334132671356201	54.15044784545898	-334.9031982421875	7.880913257598877	-60.32371520996094	-328.9008178710937	-0.0	-0.0	-0.0	-0.0	-0.0	-0.0	65067.20703125	-36075.71484375	6974.96484375
0.013000000000000001	-0.0	-0.0	-0.0	3.851304531097412	54.36954498291016	-339.789306640625	6.926780700683594	-59.70545959472656	-331.7964172363281	-0.0	-0.0	-0.0	-0.0	-0.0	-0.0	65497.26171875	-35795.8671875	6707.43896484375
0.0135	-0.0	-0.0	-0.0	1.9780508279800413	54.62923431396485	-340.7881164550781	5.840067863464356	-60.01828002929688	-334.545654296875	-0.0	-0.0	-0.0	-0.0	-0.0	-0.0	65511.0234375	-35220.1484375	6555.77099609375
0.014	-0.0	-0.0	-0.0	-0.2113892883062362	54.66987609863281	-343.2218322753906	4.491099834442139	-59.80865859985352	-336.712646484375	-0.0	-0.0	-0.0	-0.0	-0.0	-0.0	65877.953125	-34743.98828125	6125.9609375
0.0145	-0.0	-0.0	-0.0	-2.6763153076171875	54.839969635009766	-344.47998046875	2.8387451171875	-59.93767166137695	-336.422607421875	-0.0	-0.0	-0.0	-0.0	-0.0	-0.0	65951.1328125	-34311.88671875	5639.07080078125
0.015	-0.0	-0.0	-0.0	-4.53372859954834	54.450679779052734	-346.1480407714844	0.7733274698257446	-59.56913757324219	-337.65997314453125	-0.0	-0.0	-0.0	-0.0	-0.0	-0.0	65801.15625	-33441.91015625	5106.33544921875
0.0155	-0.0	-0.0	-0.0	-6.4150390625	54.00495529174805	-346.0843811035156	-0.8388388752937317	-59.07941436767578	-336.96209716796875	-0.0	-0.0	-0.0	-0.0	-0.0	-0.0	65988.8125	-32690.373046875	4765.5419921875
0.016	-0.0	-0.0	-0.0	-7.8669657707214355	53.64829254150391	-348.14019775390625	-2.0886683464050293	-58.02735137939453	-338.8984680175781	-0.0	-0.0	-0.0	-0.0	-0.0	-0.0	65626.046875	-32098.400390625	4285.0615234375
0.0165	-0.0	-0.0	-0.0	-8.840110778808594	53.69693756103516	-348.3629150390625	-3.427803039550781	-57.59368896484375	-338.64569091796875	-0.0	-0.0	-0.0	-0.0	-0.0	-0.0	65607.75	-31664.578125	3998.408203125
0.017	-0.0	-0.0	-0.0	-10.072349548339844	53.42765808105469	-350.9009704589844	-4.362674713134766	-57.144134521484375	-338.4241027832031	-0.0	-0.0	-0.0	-0.0	-0.0	-0.0	65210.42578125	-30595.0859375	3660.7236328125
0.0175	-0.0	-0.0	-0.0	-11.045065879821776	53.00930404663086	-350.29595947265625	-5.274178981781006	-56.70252227783203	-338.70947265625	-0.0	-0.0	-0.0	-0.0	-0.0	-0.0	65096.21484375	-30016.177734375	3331.427490234375
0.018000000000000002	-0.0	-0.0	-0.0	-12.11548900604248	52.63578414916992	-350.19488525390625	-6.024056911468506	-56.75080490112305	-337.978759765625	-0.0	-0.0	-0.0	-0.0	-0.0	-0.0	64774.3984375	-29666.88671875	3085.34423828125
0.0185	-0.0	-0.0	-0.0	-13.234654426574709	52.3772087097168	-350.54840087890625	-6.516021251678467	-56.13263702392578	-336.7401428222656	-0.0	-0.0	-0.0	-0.0	-0.0	-0.0	64709.47265625	-29038.17578125	2926.317138671875
0.019	-0.0	-0.0	-0.0	-14.023625373840332	51.84249877929688	-350.7424621582031	-6.7420196533203125	-55.20950698852539	-337.8543395996094	-0.0	-0.0	-0.0	-0.0	-0.0	-0.0	64742.4609375	-29076.673828125	2783.013916015625
0.0195	-0.0	-0.0	-0.0	-14.31382942199707	51.3480224609375	-348.48272705078125	-6.387176513671875	-54.77660751342773	-338.7449035644531	-0.0	-0.0	-0.0	-0.0	-0.0	-0.0	64606.1796875	-28940.3984375	2667.58056640625
0.02	-0.0	-0.0	-0.0	-14.055171012878418	50.305641174316406	-348.7115478515625	-6.0410685539245605	-54.16361618041992	-339.6557922363281	-0.0	-0.0	-0.0	-0.0	-0.0	-0.0	64896.60546875	-29048.75390625	2810.48046875
0.0205	-0.0	-0.0	-0.0	-13.894936561584473	49.02172088623047	-348.2713928222656	-5.34021520614624	-54.01308441162109	-340.4418334960937	-0.0	-0.0	-0.0	-0.0	-0.0	-0.0	65027.40625	-29321.138671875	2859.89453125
0.021	-0.0	-0.0	-0.0	-12.855561256408691	48.47471237182617	-346.46954345703125	-4.701671600341797	-53.43462371826172	-340.6150207519531	-0.0	-0.0	-0.0	-0.0	-0.0	-0.0	65114.37890625	-29085.064453125	3028.136962890625
0.021500000000000002	-0.0	-0.0	-0.0	-12.003477096557615	47.58631896972656	-347.0650939941406	-3.88149094581604	-52.454097747802734	-341.8194580078125	-0.0	-0.0	-0.0	-0.0	-0.0	-0.0	65536.5234375	-29228.20703125	3125.285400390625
0.022	-0.0	-0.0	-0.0	-11.172483444213867	47.00223922729492	-348.3192443847656	-3.349344491958618	-51.77458190917969	-342.6744689941406	-0.0	-0.0	-0.0	-0.0	-0.0	-0.0	65417.44140625	-29346.892578125	3096.15625
0.0225	-0.0	-0.0	-0.0	-10.74509620666504	46.28894805908203	-347.9134216308594	-2.957947969436645	-51.22657775878906	-342.3249816894531	-0.0	-0.0	-0.0	-0.0	-0.0	-0.0	65644.5234375	-29511.759765625	3112.895751953125
0.023	-0.0	-0.0	-0.0	-10.050609588623049	45.67452621459961	-347.7627868652344	-2.040348052978516	-50.40143966674805	-342.6277770996094	-0.0	-0.0	-0.0	-0.0	-0.0	-0.0	65505.4921875	-29615.5390625	3235.517333984375
